<svg width="108" height="56" viewBox="0 0 108 56" fill="none" xmlns="http://www.w3.org/2000/svg">
<rect x="0.65" y="0.65" width="10.7" height="10.7" rx="1.75" stroke="#007AFF" stroke-width="1.3"/>
<path d="M19 49.9999C19 49.558 19.3582 49.1999 19.8 49.1999H88.2C88.6418 49.1999 89 49.558 89 49.9999V49.9999C89 50.4417 88.6418 50.7999 88.2 50.7999H19.8C19.3582 50.7999 19 50.4417 19 49.9999V49.9999Z" fill="#DDDDDD"/>
<rect x="19" y="5" width="70" height="1.6" rx="0.8" fill="#DDDDDD"/>
<rect x="38" y="27" width="70" height="1.6" rx="0.8" fill="#DDDDDD"/>
<rect x="0.65" y="44.65" width="10.7" height="10.7" rx="1.75" stroke="#007AFF" stroke-width="1.3"/>
<rect x="19.65" y="22.65" width="10.7" height="10.7" rx="1.75" stroke="#007AFF" stroke-width="1.3"/>
<path d="M26.9757 25.5515L23.8 28.7272L23.0243 27.9515C22.7899 27.7172 22.4101 27.7172 22.1757 27.9515C21.9414 28.1858 21.9414 28.5657 22.1757 28.8L23.3757 30C23.6101 30.2343 23.9899 30.2343 24.2243 30L27.8243 26.4C28.0586 26.1657 28.0586 25.7858 27.8243 25.5515C27.5899 25.3172 27.2101 25.3172 26.9757 25.5515Z" fill="#007AFF"/>
</svg>
