<svg width="20" height="20" viewBox="0 0 20 20" fill="none" xmlns="http://www.w3.org/2000/svg">
<g clip-path="url(#clip0_374_1357)">
<path d="M16.8725 0.993765L17.0588 0.807515C17.199 0.667411 17.3654 0.55629 17.5485 0.480498C17.7316 0.404706 17.9279 0.365726 18.1261 0.365784C18.3243 0.365842 18.5205 0.404937 18.7036 0.480836C18.8867 0.556736 19.053 0.667954 19.1931 0.80814C19.3332 0.948326 19.4444 1.11473 19.5202 1.29787C19.5959 1.481 19.6349 1.67726 19.6349 1.87546C19.6348 2.07365 19.5957 2.26989 19.5198 2.45298C19.4439 2.63607 19.3327 2.80241 19.1925 2.94251L19.0063 3.12751C19.3249 3.48484 19.4947 3.95051 19.481 4.42905C19.4673 4.90759 19.2711 5.36277 18.9325 5.70126L6.06751 18.5675C5.98709 18.6475 5.88641 18.7041 5.77626 18.7313L0.776264 19.9813C0.67163 20.0073 0.562034 20.0059 0.45813 19.977C0.354227 19.9482 0.25955 19.893 0.183302 19.8167C0.107055 19.7405 0.0518318 19.6458 0.0230001 19.5419C-0.0058317 19.438 -0.00729094 19.3284 0.0187642 19.2238L1.26876 14.2238C1.29611 14.1141 1.35271 14.0138 1.43251 13.9338L13.485 1.88126C13.3645 1.79643 13.2178 1.75692 13.071 1.76973C12.9241 1.78254 12.7865 1.84684 12.6825 1.95126L8.56751 6.06752C8.5094 6.12563 8.44042 6.17172 8.36449 6.20317C8.28857 6.23462 8.20719 6.2508 8.12501 6.2508C8.04283 6.2508 7.96146 6.23462 7.88553 6.20317C7.80961 6.17172 7.74062 6.12563 7.68251 6.06752C7.6244 6.00941 7.57831 5.94042 7.54686 5.86449C7.51541 5.78857 7.49922 5.70719 7.49922 5.62502C7.49922 5.54284 7.51541 5.46146 7.54686 5.38554C7.57831 5.30961 7.6244 5.24062 7.68251 5.18251L11.8 1.06751C12.1387 0.728784 12.5943 0.532541 13.0731 0.519059C13.5519 0.505577 14.0178 0.675879 14.375 0.995015C14.7185 0.688063 15.1629 0.51828 15.6235 0.518049C16.0842 0.517819 16.5288 0.687157 16.8725 0.993765V0.993765Z" fill="black"/>
</g>
<defs>
<clipPath id="clip0_374_1357">
<rect width="20" height="20" fill="white"/>
</clipPath>
</defs>
</svg>
