<svg width="28" height="26" viewBox="0 0 28 26" fill="none" xmlns="http://www.w3.org/2000/svg">
<g filter="url(#filter0_d_69_2385)">
<path d="M18.4175 8.75H23.3325C23.3919 8.75002 23.45 8.76696 23.5001 8.79883C23.5502 8.83071 23.5902 8.8762 23.6154 8.92997C23.6406 8.98375 23.6499 9.04358 23.6423 9.10247C23.6347 9.16137 23.6105 9.21687 23.5725 9.2625L21.115 12.2125C21.0857 12.2477 21.049 12.276 21.0075 12.2954C20.966 12.3148 20.9208 12.3249 20.875 12.3249C20.8292 12.3249 20.784 12.3148 20.7425 12.2954C20.701 12.276 20.6643 12.2477 20.635 12.2125L18.1775 9.2625C18.1395 9.21687 18.1153 9.16137 18.1077 9.10247C18.1001 9.04358 18.1094 8.98375 18.1346 8.92997C18.1598 8.8762 18.1998 8.83071 18.2499 8.79883C18.3 8.76696 18.3581 8.75002 18.4175 8.75ZM4.6675 11.25H9.5825C9.64188 11.25 9.70002 11.233 9.75012 11.2012C9.80023 11.1693 9.84021 11.1238 9.86539 11.07C9.89057 11.0163 9.89991 10.9564 9.89232 10.8975C9.88472 10.8386 9.8605 10.7831 9.8225 10.7375L7.365 7.7875C7.33567 7.75233 7.29897 7.72404 7.2575 7.70462C7.21603 7.6852 7.17079 7.67514 7.125 7.67514C7.07921 7.67514 7.03397 7.6852 6.9925 7.70462C6.95103 7.72404 6.91433 7.75233 6.885 7.7875L4.4275 10.7375C4.3895 10.7831 4.36528 10.8386 4.35769 10.8975C4.35009 10.9564 4.35943 11.0163 4.38461 11.07C4.40979 11.1238 4.44978 11.1693 4.49988 11.2012C4.54998 11.233 4.60812 11.25 4.6675 11.25Z" fill="black"/>
<path fill-rule="evenodd" clip-rule="evenodd" d="M14 3.75C12.06 3.75 10.325 4.63375 9.17874 6.0225C9.12756 6.08884 9.06356 6.14421 8.99055 6.18533C8.91753 6.22644 8.837 6.25244 8.75373 6.26181C8.67047 6.27117 8.58617 6.26369 8.50585 6.23982C8.42553 6.21595 8.35083 6.17617 8.28619 6.12285C8.22155 6.06953 8.1683 6.00376 8.12959 5.92944C8.09088 5.85513 8.06751 5.77379 8.06087 5.69026C8.05423 5.60673 8.06445 5.52272 8.09093 5.44323C8.1174 5.36373 8.1596 5.29037 8.21499 5.2275C9.13023 4.11941 10.3445 3.29751 11.7133 2.85957C13.0822 2.42163 14.548 2.38606 15.9365 2.75711C17.3249 3.12816 18.5776 3.89021 19.5455 4.95261C20.5134 6.01501 21.1558 7.33307 21.3962 8.75H20.125C19.8364 7.33851 19.0692 6.06999 17.9532 5.15893C16.8371 4.24787 15.4407 3.75018 14 3.75ZM7.87499 11.25C8.11163 12.4058 8.67043 13.471 9.48684 14.3227C10.3032 15.1743 11.3439 15.7776 12.4887 16.0629C13.6335 16.3481 14.8355 16.3036 15.9561 15.9346C17.0767 15.5656 18.07 14.8871 18.8212 13.9775C18.8724 13.9112 18.9364 13.8558 19.0094 13.8147C19.0825 13.7736 19.163 13.7476 19.2463 13.7382C19.3295 13.7288 19.4138 13.7363 19.4941 13.7602C19.5745 13.7841 19.6492 13.8238 19.7138 13.8772C19.7784 13.9305 19.8317 13.9962 19.8704 14.0706C19.9091 14.1449 19.9325 14.2262 19.9391 14.3097C19.9458 14.3933 19.9355 14.4773 19.9091 14.5568C19.8826 14.6363 19.8404 14.7096 19.785 14.7725C18.8698 15.8806 17.6555 16.7025 16.2867 17.1404C14.9178 17.5784 13.452 17.6139 12.0635 17.2429C10.6751 16.8718 9.42238 16.1098 8.45448 15.0474C7.48658 13.985 6.8442 12.6669 6.60374 11.25H7.87499Z" fill="black"/>
</g>
<defs>
<filter id="filter0_d_69_2385" x="0" y="0" width="28" height="28" filterUnits="userSpaceOnUse" color-interpolation-filters="sRGB">
<feFlood flood-opacity="0" result="BackgroundImageFix"/>
<feColorMatrix in="SourceAlpha" type="matrix" values="0 0 0 0 0 0 0 0 0 0 0 0 0 0 0 0 0 0 127 0" result="hardAlpha"/>
<feOffset dy="4"/>
<feGaussianBlur stdDeviation="2"/>
<feComposite in2="hardAlpha" operator="out"/>
<feColorMatrix type="matrix" values="0 0 0 0 0 0 0 0 0 0 0 0 0 0 0 0 0 0 0.25 0"/>
<feBlend mode="normal" in2="BackgroundImageFix" result="effect1_dropShadow_69_2385"/>
<feBlend mode="normal" in="SourceGraphic" in2="effect1_dropShadow_69_2385" result="shape"/>
</filter>
</defs>
</svg>
