<svg width="20" height="20" viewBox="0 0 20 20" fill="none" xmlns="http://www.w3.org/2000/svg">
<g clip-path="url(#clip0_49_452)">
<path d="M11.4588 5.62499C11.4588 6.01188 11.3051 6.38292 11.0315 6.65649C10.7579 6.93005 10.3869 7.08374 10 7.08374C9.61312 7.08374 9.24208 6.93005 8.96851 6.65649C8.69494 6.38292 8.54125 6.01188 8.54125 5.62499C8.54125 5.23811 8.69494 4.86707 8.96851 4.5935C9.24208 4.31993 9.61312 4.16624 10 4.16624C10.3869 4.16624 10.7579 4.31993 11.0315 4.5935C11.3051 4.86707 11.4588 5.23811 11.4588 5.62499Z" fill="black"/>
<path d="M10 0C7.34784 0 4.8043 1.05357 2.92893 2.92893C1.05357 4.8043 0 7.34784 0 10C0 12.6522 1.05357 15.1957 2.92893 17.0711C4.8043 18.9464 7.34784 20 10 20C12.6522 20 15.1957 18.9464 17.0711 17.0711C18.9464 15.1957 20 12.6522 20 10C20 7.34784 18.9464 4.8043 17.0711 2.92893C15.1957 1.05357 12.6522 0 10 0V0ZM1.25 10C1.25 7.67936 2.17187 5.45376 3.81282 3.81282C5.45376 2.17187 7.67936 1.25 10 1.25C11.1603 1.25 12.2731 1.71094 13.0936 2.53141C13.9141 3.35188 14.375 4.46468 14.375 5.625C14.375 6.78532 13.9141 7.89812 13.0936 8.71859C12.2731 9.53906 11.1603 10 10 10C8.83968 10 7.72688 10.4609 6.90641 11.2814C6.08594 12.1019 5.625 13.2147 5.625 14.375C5.625 15.5353 6.08594 16.6481 6.90641 17.4686C7.72688 18.2891 8.83968 18.75 10 18.75C7.67936 18.75 5.45376 17.8281 3.81282 16.1872C2.17187 14.5462 1.25 12.3206 1.25 10ZM10 15.8337C9.61312 15.8337 9.24208 15.6801 8.96851 15.4065C8.69494 15.1329 8.54125 14.7619 8.54125 14.375C8.54125 13.9881 8.69494 13.6171 8.96851 13.3435C9.24208 13.0699 9.61312 12.9163 10 12.9163C10.3869 12.9163 10.7579 13.0699 11.0315 13.3435C11.3051 13.6171 11.4587 13.9881 11.4587 14.375C11.4587 14.7619 11.3051 15.1329 11.0315 15.4065C10.7579 15.6801 10.3869 15.8337 10 15.8337Z" fill="black"/>
</g>
<defs>
<clipPath id="clip0_49_452">
<rect width="20" height="20" fill="white"/>
</clipPath>
</defs>
</svg>
